# xmcd CD database file
# Copyright (C) 2002 Ti Kan
# 
# Track frame offsets:
#     182
#     19712
#     42307
#     65640
#     81252
#     101192
#     118815
#     137160
#     155440
#     175347
#     198042
#     225265
#     245840
# 
# Disc length: 3448 seconds
# 
# Revision: 1
# Processed by: cddbd v1.4PL0 Copyright (c) Steve Scherf et al.
# Submitted via: DiscPlay 4.0.4
# 
DISCID=b00d760d
DTITLE=John Hiatt - Walk on
DYEAR=1900
DGENRE=
TTITLE0=Cry love
TTITLE1=You must go
TTITLE2=Walk on
TTITLE3=Good as she could be
TTITLE4=The river knows your name
TTITLE5=Native son
TTITLE6=Dust down a county road
TTITLE7=Ethylene
TTITLE8=I can t wait
TTITLE9=Shredding the document
TTITLE10=Wrote it down and burned it
TTITLE11=Your love is my rest
TTITLE12=Friend of mine
EXTD=
EXTT0=
EXTT1=
EXTT2=
EXTT3=
EXTT4=
EXTT5=
EXTT6=
EXTT7=
EXTT8=
EXTT9=
EXTT10=
EXTT11=
EXTT12=
PLAYORDER=
